<?xml version="1.0" encoding="UTF-8"?>
<svg width="19px" height="16px" viewBox="0 0 19 16" version="1.1" xmlns="http://www.w3.org/2000/svg" xmlns:xlink="http://www.w3.org/1999/xlink">
    <!-- Generator: Sketch 51.1 (57501) - http://www.bohemiancoding.com/sketch -->
    <title>followers</title>
    <desc>Created with Sketch.</desc>
    <defs></defs>
    <g id="Home-Page" stroke="none" stroke-width="1" fill="none" fill-rule="evenodd">
        <g id="Thermomix_Community_users" transform="translate(-498.000000, -701.000000)" fill="#111111" fill-rule="nonzero">
            <g id="followers" transform="translate(498.000000, 701.000000)">
                <path d="M18.0326071,11.5746373 L14.5286105,10.2249535 C14.4248875,10.1852199 14.3516465,10.0945045 14.3372261,9.98790693 L14.2209185,9.09157467 C15.454937,8.48325357 16.2311317,7.26053515 16.2307627,5.92552171 L16.2307627,3.1772633 C16.2295506,2.1047241 15.3804583,1.20948989 14.27138,1.11140263 L13.8741496,0.346631207 C13.7233406,0.0645993194 13.380542,-0.068229142 13.0689196,0.0346186883 L10.7895372,0.818353837 C10.2752101,1.01058857 9.8280576,1.33937617 9.5,1.76654003 C10.4549298,2.60516235 10.9993539,3.7920286 10.9999985,5.03659716 L10.9999985,5.33290534 C11.0112281,6.58277523 11.3761066,7.80604521 12.0553821,8.87112138 C12.2481722,9.17964746 12.2848645,9.55584245 12.1551044,9.89354374 C12.0253444,10.231245 11.7432048,10.4938278 11.3883059,10.607191 C11.1794136,10.6742388 10.9671445,10.7311034 10.7523065,10.7775682 L12.2218435,11.3435169 C13.1580329,11.7007437 13.7718697,12.5732693 13.7692266,13.5430125 L13.7692266,15.7036918 C13.767927,15.8038576 13.7532422,15.9034455 13.7255344,16 L18.6922988,16 C18.8622324,16 18.9999908,15.8673383 18.9999908,15.7036918 L18.9999908,12.9503962 C19.0021665,12.343819 18.6182819,11.7978798 18.0326071,11.5746373 Z" id="Shape"></path>
                <path d="M12.3650649,16 L0.301595747,16 C0.135033995,16 9.01752129e-06,15.86599 9.01752129e-06,15.7006803 L9.01752129e-06,13.5180408 C-0.00212349264,12.9052987 0.374144028,12.3538108 0.948197694,12.1282993 L4.38296895,10.764898 C4.48503399,10.7243681 4.55679401,10.6319304 4.57025431,10.5236463 L4.65439701,9.85736054 C3.67738385,10.0626123 2.66306343,10.0078838 1.71422799,9.69872109 C1.62747533,9.66998959 1.55854535,9.60374031 1.52682553,9.51860673 C1.49510571,9.43347316 1.5040231,9.33865323 1.55106957,9.26081633 C2.30120522,8.04529613 2.7033562,6.64984845 2.71428958,5.2244898 L2.71428958,4.92517007 C2.71428958,2.94145342 4.33458932,1.33333333 6.33333033,1.33333333 C8.33207135,1.33333333 9.95237108,2.94145342 9.95237108,4.92517007 L9.95237108,5.2244898 C9.96330447,6.64984845 10.3654555,8.04529613 11.1155911,9.26081633 C11.1626376,9.33865323 11.171555,9.43347316 11.1398351,9.51860673 C11.1081153,9.60374031 11.0391853,9.66998959 10.9524327,9.69872109 C10.0036239,10.0080246 8.98926568,10.0627552 8.01226366,9.85736054 L8.09640635,10.5239456 C8.11054066,10.6316265 8.18232834,10.7232639 8.2839933,10.7634014 L11.718463,12.1268027 C12.2930309,12.3525134 12.6694061,12.9047532 12.6666516,13.5180408 L12.6666516,15.7006803 C12.6666516,15.86599 12.5316267,16 12.3650649,16 Z" id="Shape"></path>
            </g>
        </g>
    </g>
</svg>