<?xml version="1.0" encoding="UTF-8"?>
<svg width="22px" height="16px" viewBox="0 0 22 16" version="1.1" xmlns="http://www.w3.org/2000/svg" xmlns:xlink="http://www.w3.org/1999/xlink">
    <!-- Generator: Sketch 51.1 (57501) - http://www.bohemiancoding.com/sketch -->
    <title>recipes</title>
    <desc>Created with Sketch.</desc>
    <defs></defs>
    <g id="Home-Page" stroke="none" stroke-width="1" fill="none" fill-rule="evenodd">
        <g id="Thermomix_Community_users" transform="translate(-420.000000, -701.000000)" fill="#111111" fill-rule="nonzero">
            <g id="recipes" transform="translate(420.000000, 701.000000)">
                <path d="M1.57886667,12.1 L20.4211333,12.1 C20.5281511,12.1000663 20.6298569,12.0533748 20.699567,11.9721756 C20.7692771,11.8909764 20.8000334,11.7833743 20.7837667,11.6776 C20.0893988,7.37824966 16.6856492,4.02660284 12.3761,3.39863333 C13.0251683,2.66131118 12.977763,1.54343043 12.2686029,0.863705843 C11.5594427,0.183981261 10.4405573,0.183981261 9.73139713,0.863705843 C9.02223698,1.54343043 8.97483169,2.66131118 9.6239,3.39863333 C5.31435079,4.02660284 1.91060121,7.37824966 1.21623333,11.6776 C1.1999666,11.7833743 1.23072291,11.8909764 1.30043302,11.9721756 C1.37014313,12.0533748 1.47184886,12.1000663 1.57886667,12.1 Z M9.9,2.2 C9.9,1.59248678 10.3924868,1.1 11,1.1 C11.6075132,1.1 12.1,1.59248678 12.1,2.2 C12.1,2.80751322 11.6075132,3.3 11,3.3 C10.3924868,3.3 9.9,2.80751322 9.9,2.2 Z" id="Shape"></path>
                <path d="M21.9131,12.9631333 C21.8434597,12.8808438 21.7411356,12.8333697 21.6333333,12.8333333 L0.366666667,12.8333333 C0.258939542,12.8333829 0.156684644,12.8808038 0.0870548273,12.9630037 C0.0174250101,13.0452036 -0.0125339285,13.1538648 0.00513333333,13.2601333 C0.1496,14.1269333 0.870833333,15.7666667 2.56666667,15.7666667 L19.4333333,15.7666667 C21.1291667,15.7666667 21.8504,14.1269333 21.9948667,13.2601333 C22.0125365,13.1539301 21.9826373,13.0453277 21.9131,12.9631333 Z" id="Shape"></path>
            </g>
        </g>
    </g>
</svg>